<?xml version="1.0" encoding="utf-8"?>
<!-- Generator: Adobe Illustrator 24.1.1, SVG Export Plug-In . SVG Version: 6.00 Build 0)  -->
<svg version="1.1" id="Layer_1" xmlns="http://www.w3.org/2000/svg" xmlns:xlink="http://www.w3.org/1999/xlink" x="0px" y="0px"
	 viewBox="0 0 332.2 250.5" style="enable-background:new 0 0 332.2 250.5;" xml:space="preserve">
<style type="text/css">
	.st0{fill:#FFFFFF;}
	.st1{fill:#E2CF1F;}
</style>
<path d="M716.9,90.2v86.5c0,6.1-5,11.1-11.1,11.1H546.9c-6.1,0-11.1-5-11.1-11.1v-28.5c-8.6,8.8-20.7,14.2-34,14.2
	c-26.3,0-47.7-21.4-47.7-47.7c0-26.4,21.4-47.7,47.7-47.7c14.5,0,27.4,6.4,36.2,16.6c2-2.7,5.3-4.5,8.9-4.5h158.9
	C711.9,79.1,716.9,84,716.9,90.2z"/>
<rect width="332.2" height="250.5"/>
<g>
	<path class="st0" d="M153.1,112.1c2.7-2.7,4-6,4-9.8c0-2.7-0.6-5.2-1.8-7.4c-1.2-2.1-2.9-3.9-5-5.1c-2-1.2-4-1.9-5.9-2.1
		c-2.3-0.2-4.6-0.3-6.9-0.3h-11.4v44.2h7.4v-20.8l15.6,20.8h9.2L146.4,116C148.9,115.4,151.2,114.1,153.1,112.1 M133.4,94.4h4.9
		c1.7,0,3.3,0.1,5,0.3c1.2,0.2,2.3,0.6,3.3,1.3c1.9,1.4,3.1,3.6,3.1,6c0,1.4-0.4,2.9-1.1,4.1c-0.7,1.2-1.6,2-2.6,2.4
		c-1,0.5-2.1,0.8-3.2,1c-1,0.2-2.5,0.3-4.5,0.3h-4.9L133.4,94.4z"/>
	<polygon class="st0" points="238,118.6 229.4,87.4 223,87.4 214.5,118.6 206,88.6 205.7,87.4 198,87.4 210.6,131.6 218.5,131.6 
		226.2,102.7 233.9,131.6 241.8,131.6 254.4,87.4 246.8,87.4 	"/>
	<polygon class="st0" points="264.5,124.6 283.2,93.5 283.4,93.2 283.4,87.4 256,87.4 256,94.4 274.3,94.4 255.6,125.6 255.4,125.9 
		255.4,131.6 284,131.6 284,124.6 	"/>
	<rect x="162.5" y="87.4" class="st0" width="32.8" height="6.9"/>
	<rect x="162.5" y="106" class="st0" width="32.8" height="6.9"/>
	<rect x="162.5" y="124.7" class="st0" width="32.8" height="6.9"/>
	<path class="st0" d="M99.5,117.7c-1.2,3.3-3.4,6.2-6.2,8.4l-11.1-18.6l-11.1,18.6c-4.6-3.5-7.3-8.9-7.3-14.7
		c0-10.2,8.2-18.4,18.4-18.4c8.2,0,15.4,5.5,17.7,13.3l0.4,1.5h15.8l-0.4-2.4c-2.9-16.2-17-28-33.5-28c-18.8,0-34,15.3-34,34
		c0,11.9,6.4,23.1,16.6,29.2l1.7,1l0,0l1.1-1.8l1-1.6l0,0l5-8.3l0.9-1.6l0,0l7.7-12.9l7.7,12.9l0,0l1,1.7l4.9,8.2l0,0l0.8,1.4
		l1.3,2.1l0,0l1.7-1c8-4.8,13.7-12.7,15.8-21.8l0.6-2.5l-16,0L99.5,117.7z M52.3,111.4c0-16.5,13.4-30,30-30
		c13.6,0,25.5,9.1,29,22.3h-7.8c-3.2-8.8-11.7-14.8-21.1-14.8c-12.4,0-22.5,10.1-22.5,22.5c0,7.2,3.5,13.9,9.3,18.2l-3.9,6.4
		C57.2,130.4,52.3,121.2,52.3,111.4 M110.8,120.4c-2,6.3-6,11.8-11.5,15.6l-3.8-6.4c3.2-2.4,5.8-5.5,7.4-9.2L110.8,120.4z"/>
	<polygon class="st1" points="83.7,124 82,119.9 80.2,124 	"/>
	<polygon class="st1" points="85.8,131.5 84.7,127.4 79.3,127.4 78.1,131.5 	"/>
	<polygon class="st1" points="87,136 77,136 75.2,141.7 88.7,141.7 	"/>
	<g>
		<path class="st0" d="M145.1,141.7v21.5l-12.3-21.5h-6.7v30.6h6v-22.1l12.6,22.1h6.4v-30.6H145.1z"/>
		<path class="st0" d="M173,141.7h-7.4l-10.8,30.6h6.6l7.9-23.8l7.9,23.8h6.8L173,141.7z"/>
		<path class="st0" d="M185.4,141.7v5.4h9.3v25.2h6.4v-25.2h9.2v-5.4H185.4z"/>
		<path class="st0" d="M213.5,141.7v30.6h6.4v-30.6H213.5z"/>
		<path class="st1" d="M250,145.2c-2.7-2.9-6.2-4.4-10.8-4.4c-4.5,0-8.1,1.5-10.7,4.4c-2.7,2.9-4,6.9-4,11.9c0,4.9,1.3,8.8,4,11.7
			c2.7,2.9,6.2,4.3,10.7,4.3c0.6,0,1.2,0,1.8-0.1l-0.2-5.5c-0.5,0.1-1,0.1-1.6,0.1c-2.6,0-4.7-0.9-6.1-2.8s-2.2-4.5-2.2-7.8
			c0-3.4,0.7-6.1,2.2-8c1.5-1.9,3.5-2.9,6.1-2.9c2.6,0,4.7,0.9,6.1,2.9c1.5,1.9,2.2,4.6,2.2,8c0,3.3-0.7,5.9-2.2,7.8
			c-1,1.3-2.4,2.2-4,2.6l4.7,4.3c1.5-0.7,2.8-1.7,4-2.9c2.6-2.9,4-6.8,4-11.7C254,152.2,252.7,148.2,250,145.2z"/>
		<path class="st0" d="M277.8,141.7v21.5l-12.3-21.5h-6.7v30.6h6v-22.1l12.6,22.1h6.4v-30.6H277.8z"/>
	</g>
</g>
<g>
	<path class="st0" d="M573.7,116.6c2.7-2.7,4-6,4-9.8c0-2.7-0.6-5.2-1.8-7.4c-1.2-2.1-2.9-3.9-5-5.1c-2-1.2-4-1.9-5.9-2.1
		c-2.3-0.2-4.6-0.3-6.9-0.3h-11.4V136h7.4v-20.8l15.6,20.8h9.2l-11.8-15.6C569.6,119.8,571.8,118.6,573.7,116.6 M554.1,98.8h4.9
		c1.7,0,3.3,0.1,5,0.3c1.2,0.2,2.3,0.6,3.3,1.3c1.9,1.4,3.1,3.6,3.1,6c0,1.4-0.4,2.9-1.1,4.1c-0.7,1.2-1.6,2-2.6,2.4
		c-1,0.5-2.1,0.8-3.2,1c-1,0.2-2.5,0.3-4.5,0.3h-4.9L554.1,98.8z"/>
	<polygon class="st0" points="658.6,123.1 650,91.8 643.7,91.8 635.1,123.1 626.6,93 626.3,91.8 618.6,91.8 631.2,136 639.1,136 
		646.8,107.1 654.5,136 662.4,136 675.1,91.8 667.4,91.8 	"/>
	<polygon class="st0" points="685.2,129.1 703.8,97.9 704,97.6 704,91.8 676.6,91.8 676.6,98.8 694.9,98.8 676.2,130 676,130.3 
		676,136 704.6,136 704.6,129.1 	"/>
	<rect x="583.1" y="91.8" class="st0" width="32.8" height="6.9"/>
	<rect x="583.1" y="110.5" class="st0" width="32.8" height="6.9"/>
	<rect x="583.1" y="129.1" class="st0" width="32.8" height="6.9"/>
	<path class="st0" d="M520.2,122.1c-1.2,3.3-3.4,6.2-6.2,8.4l-11.1-18.6l-11.1,18.6c-4.6-3.5-7.3-8.9-7.3-14.7
		c0-10.2,8.2-18.4,18.4-18.4c8.2,0,15.4,5.5,17.7,13.3l0.4,1.5h15.8l-0.4-2.4c-2.9-16.2-17-28-33.5-28c-18.8,0-34,15.3-34,34
		c0,11.9,6.4,23.1,16.6,29.2l1.7,1l0,0l1.1-1.8l1-1.6l0,0l5-8.3l0.9-1.6l0,0l7.7-12.9l7.7,12.9l0,0l1,1.7l4.9,8.2l0,0l0.8,1.4
		l1.3,2.1l0,0l1.7-1c8-4.8,13.7-12.7,15.8-21.8l0.6-2.5l-16,0L520.2,122.1z M472.9,115.8c0-16.5,13.4-30,30-30
		c13.6,0,25.5,9.1,29,22.3H524c-3.2-8.8-11.7-14.8-21.1-14.8c-12.4,0-22.5,10.1-22.5,22.5c0,7.2,3.5,13.9,9.3,18.2l-3.9,6.4
		C477.8,134.9,472.9,125.6,472.9,115.8 M531.4,124.8c-2,6.3-6,11.8-11.5,15.6l-3.8-6.4c3.2-2.4,5.8-5.5,7.4-9.2L531.4,124.8z"/>
	<polygon class="st1" points="504.3,128.4 502.7,124.3 500.8,128.4 	"/>
	<polygon class="st1" points="506.5,135.9 505.4,131.8 499.9,131.8 498.7,135.9 	"/>
	<polygon class="st1" points="507.7,140.4 497.6,140.4 495.9,146.1 509.3,146.1 	"/>
	<g>
		<path class="st0" d="M565.7,146.1v21.5l-12.3-21.5h-6.7v30.6h6v-22.1l12.6,22.1h6.4v-30.6H565.7z"/>
		<path class="st0" d="M593.7,146.1h-7.4l-10.8,30.6h6.6l7.9-23.8l7.9,23.8h6.8L593.7,146.1z"/>
		<path class="st0" d="M606,146.1v5.4h9.3v25.2h6.4v-25.2h9.2v-5.4H606z"/>
		<path class="st0" d="M634.2,146.1v30.6h6.4v-30.6H634.2z"/>
		<path class="st1" d="M670.6,149.7c-2.7-2.9-6.2-4.4-10.8-4.4c-4.5,0-8.1,1.5-10.7,4.4c-2.7,2.9-4,6.9-4,11.9c0,4.9,1.3,8.8,4,11.7
			c2.7,2.9,6.2,4.3,10.7,4.3c0.6,0,1.2,0,1.8-0.1l-0.2-5.5c-0.5,0.1-1,0.1-1.6,0.1c-2.6,0-4.7-0.9-6.1-2.8c-1.5-1.9-2.2-4.5-2.2-7.8
			c0-3.4,0.7-6.1,2.2-8c1.5-1.9,3.5-2.9,6.1-2.9c2.6,0,4.7,0.9,6.1,2.9c1.5,1.9,2.2,4.6,2.2,8c0,3.3-0.7,5.9-2.2,7.8
			c-1,1.3-2.4,2.2-4,2.6l4.7,4.3c1.5-0.7,2.8-1.7,4-2.9c2.6-2.9,4-6.8,4-11.7C674.6,156.6,673.3,152.6,670.6,149.7z"/>
		<path class="st0" d="M698.4,146.1v21.5l-12.3-21.5h-6.7v30.6h6v-22.1l12.6,22.1h6.4v-30.6H698.4z"/>
	</g>
</g>
</svg>
